<?xml version="1.0" encoding="iso-8859-1"?>
<!-- Generator: Adobe Illustrator 17.1.0, SVG Export Plug-In . SVG Version: 6.00 Build 0)  -->
<!DOCTYPE svg PUBLIC "-//W3C//DTD SVG 1.1//EN" "http://www.w3.org/Graphics/SVG/1.1/DTD/svg11.dtd">
<svg version="1.1" xmlns="http://www.w3.org/2000/svg" xmlns:xlink="http://www.w3.org/1999/xlink" x="0px" y="0px"
	 viewBox="0 0 1792 1792" style="enable-background:new 0 0 1792 1792;" xml:space="preserve">
<g id="Guide">
</g>
<g id="Font">
</g>
<g id="Unicode">
	<g>
		<path style="fill:#ED1E79;" d="M562.876,781.031h24.25v105.875c0,18.418-2.084,33.043-6.25,43.875
			c-4.168,10.834-11.688,19.646-22.562,26.438c-10.875,6.793-25.146,10.188-42.812,10.188c-17.168,0-31.209-2.959-42.125-8.875
			c-10.918-5.916-18.709-14.479-23.375-25.688c-4.668-11.207-7-26.52-7-45.938V781.031h24.25v105.75
			c0,15.918,1.479,27.646,4.438,35.188c2.957,7.543,8.041,13.355,15.25,17.438c7.207,4.084,16.02,6.125,26.438,6.125
			c17.832,0,30.541-4.041,38.125-12.125c7.582-8.082,11.375-23.625,11.375-46.625V781.031z"/>
		<path style="fill:#ED1E79;" d="M671.876,934.656v-50.25h-49.875v-21h49.875v-49.875h21.25v49.875h49.875v21h-49.875v50.25H671.876
			z"/>
		<path style="fill:#ED1E79;" d="M778.251,964.281v-183.25h123.625v21.625h-99.375v56.75h86v21.625h-86v83.25H778.251z"/>
		<path style="fill:#ED1E79;" d="M925.751,805.031v-21.625h118.625v17.5c-11.668,12.418-23.23,28.918-34.688,49.5
			c-11.459,20.584-20.312,41.75-26.562,63.5c-4.5,15.334-7.375,32.125-8.625,50.375h-23.125c0.25-14.416,3.082-31.832,8.5-52.25
			c5.416-20.416,13.188-40.104,23.312-59.062c10.125-18.957,20.895-34.938,32.312-47.938H925.751z"/>
		<path style="fill:#ED1E79;" d="M1066.626,873.906c0-21.666,2.229-39.104,6.688-52.312c4.457-13.207,11.082-23.395,19.875-30.562
			c8.791-7.166,19.854-10.75,33.188-10.75c9.832,0,18.457,1.98,25.875,5.938c7.416,3.959,13.541,9.668,18.375,17.125
			c4.832,7.459,8.625,16.543,11.375,27.25c2.75,10.709,4.125,25.146,4.125,43.312c0,21.5-2.209,38.855-6.625,52.062
			c-4.418,13.209-11.021,23.418-19.812,30.625c-8.793,7.209-19.896,10.812-33.312,10.812c-17.668,0-31.543-6.332-41.625-19
			C1072.667,933.156,1066.626,908.324,1066.626,873.906z M1089.751,873.906c0,30.084,3.52,50.105,10.562,60.062
			c7.041,9.959,15.729,14.938,26.062,14.938c10.332,0,19.02-5,26.062-15c7.041-10,10.562-30,10.562-60
			c0-30.166-3.521-50.207-10.562-60.125c-7.043-9.916-15.812-14.875-26.312-14.875c-10.334,0-18.584,4.375-24.75,13.125
			C1093.626,823.199,1089.751,843.824,1089.751,873.906z"/>
		<path style="fill:#ED1E79;" d="M1217.126,964.281v-183.25h68.75c14,0,25.229,1.855,33.688,5.562
			c8.457,3.709,15.082,9.418,19.875,17.125c4.791,7.709,7.188,15.771,7.188,24.188c0,7.834-2.125,15.209-6.375,22.125
			c-4.25,6.918-10.668,12.5-19.25,16.75c11.082,3.25,19.604,8.793,25.562,16.625c5.957,7.834,8.938,17.084,8.938,27.75
			c0,8.584-1.812,16.562-5.438,23.938s-8.105,13.062-13.438,17.062c-5.334,4-12.021,7.021-20.062,9.062
			c-8.043,2.043-17.896,3.062-29.562,3.062H1217.126z M1241.376,858.031h39.625c10.75,0,18.457-0.707,23.125-2.125
			c6.166-1.832,10.812-4.875,13.938-9.125s4.688-9.582,4.688-16c0-6.082-1.459-11.438-4.375-16.062
			c-2.918-4.625-7.084-7.791-12.5-9.5c-5.418-1.707-14.709-2.562-27.875-2.562h-36.625V858.031z M1241.376,942.656h45.625
			c7.832,0,13.332-0.291,16.5-0.875c5.582-1,10.25-2.666,14-5c3.75-2.332,6.832-5.729,9.25-10.188
			c2.416-4.457,3.625-9.604,3.625-15.438c0-6.832-1.75-12.77-5.25-17.812c-3.5-5.041-8.355-8.582-14.562-10.625
			c-6.209-2.041-15.146-3.062-26.812-3.062h-42.375V942.656z"/>
	</g>
</g>
</svg>
